<?xml version="1.0" encoding="UTF-8"?><svg xmlns="http://www.w3.org/2000/svg" viewBox="0 0 1694 352"><g style="isolation:isolate;"><g id="Layer_1"><path d="M880,0v66h-66V0h-22v154h22v-66h66v66h22V0h-22ZM1078,132V0h-22v154h110v-22h-88ZM1430,22V0h-110v154h110v-22h-88v-44h66v-22h-66V22h88ZM242,22V0h-110v154h110v-22h-88v-44h66v-22h-66V22h88Z" style="mix-blend-mode:screen; stroke-width:0px;"/><path d="M1540,88v-22h22V22h-22V0h-88v154h22v-66h22v22h22v22h22v22h22v-22h-22v-22h-22v-22h22ZM1474,66V22h66v44h-66Z" style="mix-blend-mode:screen; stroke-width:0px;"/><polygon points="1210 132 1298 132 1298 154 1188 154 1188 110 1210 110 1210 88 1232 88 1232 66 1254 66 1254 44 1276 44 1276 22 1188 22 1188 0 1298 0 1298 44 1276 44 1276 66 1254 66 1254 88 1232 88 1232 110 1210 110 1210 132" style="mix-blend-mode:screen; stroke-width:0px;"/><path d="M1034,22h-22V0h-66v22h-22v110h22v22h66v-22h22V22ZM1012,132h-66V22h66v110Z" style="mix-blend-mode:screen; stroke-width:0px;"/><polygon points="638 0 638 44 616 44 616 66 594 66 594 154 572 154 572 66 550 66 550 44 528 44 528 0 550 0 550 44 572 44 572 66 594 66 594 44 616 44 616 0 638 0" style="mix-blend-mode:screen; stroke-width:0px;"/><polygon points="374 0 374 154 352 154 352 88 330 88 330 66 308 66 308 44 286 44 286 154 264 154 264 0 286 0 286 22 308 22 308 44 330 44 330 66 352 66 352 0 374 0" style="mix-blend-mode:screen; stroke-width:0px;"/><polygon points="506 0 506 154 484 154 484 88 462 88 462 66 440 66 440 44 418 44 418 154 396 154 396 0 418 0 418 22 440 22 440 44 462 44 462 66 484 66 484 0 506 0" style="mix-blend-mode:screen; stroke-width:0px;"/><polygon points="1562 198 1562 352 1540 352 1540 286 1518 286 1518 264 1496 264 1496 242 1474 242 1474 352 1452 352 1452 198 1474 198 1474 220 1496 220 1496 242 1518 242 1518 264 1540 264 1540 198 1562 198" style="mix-blend-mode:screen; stroke-width:0px;"/><polygon points="110 0 110 132 88 132 88 154 22 154 22 132 0 132 0 110 22 110 22 132 88 132 88 0 110 0" style="mix-blend-mode:screen; stroke-width:0px;"/><polygon points="418 330 418 198 396 198 396 330 396 352 418 352 506 352 506 330 418 330" style="stroke-width:0px;"/><polygon points="638 220 638 198 594 198 572 198 528 198 528 220 572 220 572 330 528 330 528 352 572 352 594 352 638 352 638 330 594 330 594 220 638 220" style="stroke-width:0px;"/><polygon points="682 220 682 330 748 330 748 286 704 286 704 264 770 264 770 330 748 330 748 352 682 352 682 330 660 330 660 220 682 220 682 198 770 198 770 220 682 220" style="stroke-width:0px;"/><polygon points="880 198 880 264 814 264 814 198 792 198 792 264 792 286 792 352 814 352 814 286 880 286 880 352 902 352 902 286 902 264 902 198 880 198" style="stroke-width:0px;"/><rect x="924" y="198" width="110" height="22" style="stroke-width:0px;"/><rect x="968" y="198" width="22" height="154" style="stroke-width:0px;"/><rect x="1188" y="198" width="22" height="154" style="stroke-width:0px;"/><rect x="1188" y="330" width="110" height="22" style="stroke-width:0px;"/><polygon points="1430 220 1430 198 1386 198 1364 198 1320 198 1320 220 1364 220 1364 330 1320 330 1320 352 1364 352 1386 352 1430 352 1430 330 1386 330 1386 220 1430 220" style="stroke-width:0px;"/><polygon points="1694 220 1694 198 1606 198 1584 198 1584 220 1584 264 1584 286 1584 330 1584 352 1606 352 1694 352 1694 330 1606 330 1606 286 1672 286 1672 264 1606 264 1606 220 1694 220" style="stroke-width:0px;"/></g></g></svg>